<svg width="25" height="25" viewBox="0 0 25 25" fill="none" xmlns="http://www.w3.org/2000/svg">
<mask id="mask0_107_19" style="mask-type:alpha" maskUnits="userSpaceOnUse" x="0" y="0" width="25" height="25">
<rect x="0.237061" y="0.242676" width="24" height="24" fill="#D9D9D9"/>
</mask>
<g mask="url(#mask0_107_19)">
<path d="M4.23706 20.2427C3.68706 20.2427 3.21623 20.0468 2.82456 19.6552C2.43289 19.2635 2.23706 18.7927 2.23706 18.2427V6.24268C2.23706 5.69268 2.43289 5.22184 2.82456 4.83018C3.21623 4.43851 3.68706 4.24268 4.23706 4.24268H10.2371L12.2371 6.24268H20.2371C20.7871 6.24268 21.2579 6.43851 21.6496 6.83018C22.0412 7.22184 22.2371 7.69268 22.2371 8.24268V18.2427C22.2371 18.7927 22.0412 19.2635 21.6496 19.6552C21.2579 20.0468 20.7871 20.2427 20.2371 20.2427H4.23706ZM4.23706 18.2427H20.2371V8.24268H11.4121L9.41206 6.24268H4.23706V18.2427Z" fill="#9CA3AF"/>
</g>
</svg>
