<svg width="24" height="24" viewBox="0 0 24 24" fill="none" xmlns="http://www.w3.org/2000/svg">
<path d="M5.75996 11.2335V11.2272V4.98677L5.70236 4.94405H5.69756L4.38716 3.97445C3.58556 3.37925 2.44316 3.40805 1.73276 4.10885C1.25756 4.57925 0.959961 5.23205 0.959961 5.95685V7.68581L5.75996 11.2335ZM18.24 11.2272V11.2335L23.04 7.68581V5.95685C23.04 5.24165 22.752 4.58885 22.2816 4.11845C21.5808 3.41909 20.4744 3.33701 19.678 3.92501L18.2976 4.94405L18.24 4.98677V11.2272ZM6.71996 11.9367L11.7148 15.6288C11.8843 15.7541 12.1161 15.7541 12.2856 15.6288L17.28 11.9367V5.69621L12 9.60005L6.71996 5.69621V11.9367ZM18.24 12.4268V19.68C18.24 19.945 18.455 20.16 18.72 20.16H21.84C22.5028 20.16 23.04 19.6229 23.04 18.96V8.87861L18.24 12.4268ZM5.75996 12.4268L0.959961 8.87861V18.96C0.959961 19.6229 1.49708 20.16 2.15996 20.16H5.27996C5.54492 20.16 5.75996 19.945 5.75996 19.68V12.4268Z" fill="#F8F8F8"/>
</svg>
