<svg width="200" height="200" viewBox="0 0 200 200" fill="none" xmlns="http://www.w3.org/2000/svg">
<path fill-rule="evenodd" clip-rule="evenodd" d="M70.8716 24.4877C65.5455 22.9425 61.5947 23.3569 58.7208 24.9136C55.8468 26.4704 53.3415 29.553 51.7261 34.8584C50.0991 40.2022 49.5437 47.3365 50.3344 55.9506C50.4625 57.3465 50.6252 58.7725 50.8224 60.2262C57.7983 58.4534 65.2948 57.0533 73.1717 56.0758C78.6323 48.4252 84.36 41.526 90.1708 35.5433C89.8796 35.3073 89.5889 35.0744 89.2985 34.8446C82.5153 29.4764 76.2364 26.0442 70.8716 24.4877ZM99.9992 26.3666C99.1899 25.6881 98.3809 25.0288 97.5728 24.3893C89.9467 18.354 82.1367 13.8729 74.5868 11.6825C66.9983 9.48079 59.2087 9.48549 52.3701 13.1897C45.5317 16.894 41.2724 23.416 38.9709 30.9749C36.6812 38.4952 36.1679 47.4848 37.0569 57.1694C37.2653 59.4394 37.5524 61.766 37.9172 64.142C35.6545 64.9528 33.4723 65.8084 31.3772 66.7062C22.4381 70.5373 14.7783 75.2702 9.25628 80.8654C3.70601 86.4893 0 93.3409 0 101.118C0 108.895 3.706 115.747 9.25628 121.371C14.7783 126.966 22.4381 131.699 31.3772 135.531C33.4723 136.428 35.6544 137.284 37.9171 138.095C37.5523 140.471 37.2651 142.797 37.0567 145.068C36.1676 154.752 36.6809 163.741 38.9707 171.263C41.2721 178.821 45.5315 185.343 52.3699 189.047C59.2084 192.752 66.998 192.756 74.5865 190.555C82.1364 188.364 89.9464 183.883 97.5725 177.848C98.3808 177.208 99.1897 176.549 99.9992 175.871C100.809 176.549 101.618 177.208 102.426 177.848C110.052 183.883 117.862 188.364 125.412 190.555C133 192.756 140.789 192.752 147.628 189.047C154.467 185.343 158.727 178.821 161.028 171.263C163.317 163.741 163.831 154.752 162.941 145.068C162.733 142.797 162.447 140.471 162.081 138.095C164.344 137.284 166.527 136.428 168.623 135.531C177.561 131.699 185.221 126.966 190.744 121.371C196.293 115.747 200 108.895 200 101.118C200 93.3409 196.293 86.4893 190.744 80.8654C185.221 75.2702 177.561 70.5373 168.623 66.7062C166.527 65.8082 164.344 64.9525 162.081 64.1414C162.445 61.7656 162.733 59.4393 162.941 57.1694C163.831 47.4848 163.317 38.4952 161.028 30.9749C158.727 23.416 154.467 16.894 147.628 13.1897C140.789 9.48549 133 9.48079 125.412 11.6825C117.862 13.8729 110.052 18.354 102.425 24.3893C101.617 25.0288 100.809 25.6881 99.9992 26.3666ZM99.9992 44.5621C97.0019 47.631 94.0021 50.9948 91.0361 54.6282C93.9915 54.5112 96.9815 54.4516 100 54.4516C103.018 54.4516 106.007 54.5112 108.962 54.6282C105.996 50.9948 102.997 47.631 99.9992 44.5621ZM126.827 56.0756C121.366 48.425 115.638 41.5258 109.828 35.5433C110.119 35.3073 110.409 35.0744 110.7 34.8446C117.483 29.4764 123.762 26.0442 129.127 24.4877C134.453 22.9425 138.404 23.3569 141.277 24.9136C144.152 26.4704 146.657 29.553 148.272 34.8584C149.899 40.2022 150.455 47.3365 149.664 55.9506C149.536 57.3464 149.373 58.7722 149.176 60.2258C142.2 58.4532 134.704 57.053 126.827 56.0756ZM119.325 68.6712C113.12 68.0924 106.655 67.7849 100 67.7849C93.3447 67.7849 86.8788 68.0924 80.6736 68.6713C77.2092 73.8516 73.8592 79.3904 70.6895 85.2421C67.8029 90.5709 65.2155 95.883 62.9288 101.118C65.2156 106.354 67.8032 111.666 70.6897 116.995C73.8593 122.846 77.2093 128.385 80.6735 133.565C86.8787 134.144 93.3447 134.452 100 134.452C106.655 134.452 113.12 134.144 119.325 133.565C122.789 128.385 126.139 122.846 129.309 116.995C132.195 111.666 134.783 106.354 137.069 101.118C134.783 95.8832 132.195 90.5709 129.309 85.2421C126.139 79.3902 122.789 73.8514 119.325 68.6712ZM143.637 83.845C142.795 82.1936 141.927 80.5418 141.033 78.8916C139.595 76.2374 138.119 73.6368 136.608 71.0941C140.083 71.7556 143.431 72.507 146.637 73.34C145.795 76.7517 144.795 80.2609 143.637 83.845ZM143.637 118.391C142.795 120.043 141.927 121.695 141.032 123.345C139.595 125.999 138.119 128.6 136.608 131.142C140.083 130.481 143.431 129.729 146.637 128.896C145.795 125.485 144.795 121.975 143.637 118.391ZM159.377 124.882C157.444 117.233 154.819 109.247 151.532 101.118C154.819 92.9892 157.444 85.003 159.377 77.3538C160.751 77.873 162.081 78.4093 163.371 78.9616C171.321 82.369 177.329 86.2554 181.253 90.2313C185.149 94.1785 186.667 97.8497 186.667 101.118C186.667 104.387 185.149 108.058 181.253 112.005C177.329 115.981 171.321 119.867 163.371 123.275C162.081 123.827 160.751 124.363 159.377 124.882ZM149.176 142.011C142.2 143.783 134.704 145.184 126.827 146.161C121.366 153.812 115.638 160.711 109.828 166.693C110.119 166.929 110.41 167.163 110.7 167.392C117.483 172.76 123.762 176.193 129.127 177.749C134.453 179.295 138.404 178.88 141.277 177.324C144.152 175.767 146.657 172.684 148.272 167.379C149.9 162.035 150.455 154.9 149.664 146.287C149.536 144.891 149.373 143.464 149.176 142.011ZM99.9992 157.675C102.997 154.605 105.996 151.241 108.962 147.608C106.008 147.725 103.018 147.785 100 147.785C96.9815 147.785 93.9913 147.725 91.0359 147.608C94.002 151.241 97.0017 154.605 99.9992 157.675ZM63.3901 131.142C61.8797 128.6 60.4033 125.999 58.9659 123.345C58.0719 121.695 57.2033 120.043 56.3605 118.391C55.2041 121.975 54.2041 125.484 53.3611 128.896C56.5671 129.729 59.9157 130.48 63.3901 131.142ZM50.8223 142.011C57.798 143.783 65.2947 145.183 73.1715 146.16C78.632 153.811 84.36 160.711 90.1709 166.693C89.8796 166.929 89.5887 167.163 89.2983 167.392C82.5151 172.76 76.2361 176.193 70.8713 177.749C65.5452 179.295 61.5944 178.88 58.7205 177.324C55.8465 175.767 53.3412 172.684 51.7259 167.379C50.0988 162.035 49.5435 154.9 50.3341 146.287C50.4624 144.891 50.6251 143.464 50.8223 142.011ZM40.6208 124.882C42.5541 117.233 45.1792 109.247 48.4659 101.118C45.1792 92.9894 42.5543 85.0034 40.6208 77.3544C39.2488 77.8734 37.9177 78.4094 36.6295 78.9616C28.6785 82.369 22.6701 86.2554 18.7463 90.2313C14.8507 94.1785 13.3333 97.8497 13.3333 101.118C13.3333 104.387 14.8507 108.058 18.7463 112.005C22.6701 115.981 28.6785 119.867 36.6295 123.275C37.9177 123.827 39.2488 124.363 40.6208 124.882ZM53.3611 73.3404C54.2041 76.752 55.2041 80.261 56.3605 83.8449C57.2032 82.1936 58.0717 80.542 58.9656 78.8916C60.4032 76.2376 61.8797 73.637 63.3903 71.0944C59.9159 71.756 56.5672 72.5074 53.3611 73.3404ZM80 101.118C80 90.0725 88.9543 81.1182 100 81.1182C111.046 81.1182 120 90.0725 120 101.118C120 112.164 111.046 121.118 100 121.118C88.9543 121.118 80 112.164 80 101.118ZM100 94.4516C96.3181 94.4516 93.3333 97.4362 93.3333 101.118C93.3333 104.8 96.3181 107.785 100 107.785C103.682 107.785 106.667 104.8 106.667 101.118C106.667 97.4362 103.682 94.4516 100 94.4516Z" fill="white"/>
</svg>
