<svg width="200" height="200" viewBox="0 0 200 200" fill="none" xmlns="http://www.w3.org/2000/svg">
<g clip-path="url(#clip0_60_471)">
<path d="M100.008 40C73.3416 40 56.675 53.3333 50.0083 80C60.0083 66.6667 71.675 61.6667 85.0083 65C92.6166 66.9 98.05 72.4167 104.075 78.5333C113.883 88.4833 125.225 100 150.008 100C176.675 100 193.342 86.6667 200.008 60C190.008 73.3333 178.342 78.3333 165.008 75C157.4 73.1 151.967 67.5833 145.942 61.4667C136.142 51.5167 124.8 40 100.008 40ZM50.0083 100C23.3416 100 6.67497 113.333 0.00830078 140C10.0083 126.667 21.675 121.667 35.0083 125C42.6166 126.9 48.05 132.417 54.075 138.533C63.8833 148.483 75.225 160 100.008 160C126.675 160 143.342 146.667 150.008 120C140.008 133.333 128.342 138.333 115.008 135C107.4 133.1 101.967 127.583 95.9416 121.467C86.1416 111.517 74.8 100 50.0083 100Z" fill="white"/>
</g>
<defs>
<clipPath id="clip0_60_471">
<rect width="200" height="200" fill="white"/>
</clipPath>
</defs>
</svg>
